<svg xmlns="http://www.w3.org/2000/svg" version="1.1" viewBox="0.00 0.00 532.00 532.00" width="512" height="512">
<g stroke-width="2.00" fill="none" stroke-linecap="butt">
<path stroke="#ff8000" d="&#10;  M 273.29 83.16&#10;  A 0.78 0.78 0.0 0 1 272.60 82.66&#10;  L 264.81 62.01&#10;  A 0.78 0.78 0.0 0 0 263.35 62.01&#10;  L 255.56 82.66&#10;  A 0.78 0.78 0.0 0 1 254.87 83.16&#10;  L 232.83 84.19&#10;  A 0.78 0.78 0.0 0 0 232.38 85.58&#10;  L 249.60 99.36&#10;  A 0.78 0.78 0.0 0 1 249.87 100.18&#10;  L 244.04 121.46&#10;  A 0.78 0.78 0.0 0 0 245.22 122.31&#10;  L 263.65 110.19&#10;  A 0.78 0.78 0.0 0 1 264.51 110.19&#10;  L 282.94 122.31&#10;  A 0.78 0.78 0.0 0 0 284.12 121.46&#10;  L 278.29 100.18&#10;  A 0.78 0.78 0.0 0 1 278.56 99.36&#10;  L 295.78 85.58&#10;  A 0.78 0.78 0.0 0 0 295.33 84.19&#10;  L 273.29 83.16"/>
<path stroke="#ff8000" d="&#10;  M 410.80 187.36&#10;  L 412.81 190.85&#10;  A 2.76 2.76 0.0 0 0 416.06 192.09&#10;  C 418.06 191.42 419.69 190.07 421.42 188.74&#10;  C 432.90 179.93 438.19 168.78 430.74 155.03&#10;  Q 424.97 144.38 415.12 131.89&#10;  Q 414.47 131.06 414.01 130.87&#10;  A 0.60 0.59 -70.6 0 0 413.22 131.25&#10;  Q 409.45 143.32 406.63 155.89&#10;  C 405.03 163.00 404.93 169.13 405.12 175.32&#10;  Q 405.19 177.62 406.27 180.19&#10;  A 0.15 0.14 -28.5 0 1 406.21 180.38&#10;  L 406.20 180.38&#10;  A 0.15 0.14 61.5 0 1 406.01 180.32&#10;  Q 401.80 172.96 397.36 165.15&#10;  Q 396.20 163.11 396.30 161.24&#10;  C 396.60 155.14 396.94 148.76 395.52 143.31&#10;  C 392.05 129.96 381.83 125.17 368.98 122.48&#10;  C 367.32 122.14 364.78 121.23 363.87 120.38&#10;  C 356.07 113.09 348.63 105.84 339.89 100.35&#10;  Q 339.07 99.84 338.63 99.83&#10;  A 0.64 0.64 0.0 0 0 338.08 100.82&#10;  Q 340.00 103.80 343.05 106.46&#10;  Q 350.69 113.13 359.29 121.55&#10;  A 5.19 5.19 0.0 0 1 360.85 125.51&#10;  Q 360.44 133.90 363.52 142.12&#10;  C 367.53 152.86 379.57 159.35 390.07 161.85&#10;  A 4.23 4.21 -8.2 0 1 392.76 163.85&#10;  C 394.38 166.67 397.40 172.09 399.30 176.71&#10;  Q 403.55 187.02 404.14 187.65&#10;  A 0.04 0.04 0.0 0 1 404.13 187.71&#10;  L 403.83 187.88&#10;  A 0.16 0.15 63.5 0 1 403.61 187.80&#10;  Q 401.18 181.43 396.35 177.05&#10;  C 384.39 166.23 371.53 161.34 355.68 160.20&#10;  A 0.61 0.61 0.0 0 0 355.05 160.99&#10;  C 358.56 172.71 366.55 181.60 377.39 187.39&#10;  Q 386.00 191.99 393.26 193.71&#10;  C 398.23 194.89 402.46 196.53 406.53 195.74&#10;  A 1.32 1.31 -18.4 0 1 407.96 196.45&#10;  C 411.43 203.63 414.41 211.59 416.10 219.60&#10;  C 417.48 226.16 418.42 229.64 419.18 234.69&#10;  Q 419.59 237.35 420.38 239.79&#10;  A 9.55 9.49 -55.8 0 1 420.83 242.19&#10;  Q 422.51 269.84 420.31 288.53&#10;  Q 418.29 305.69 411.95 322.49&#10;  Q 408.20 332.43 403.38 339.65&#10;  Q 397.54 348.40 396.04 350.72&#10;  Q 393.34 354.87 387.52 360.96&#10;  A 0.16 0.15 43.6 0 1 387.31 360.96&#10;  L 387.30 360.96&#10;  A 0.21 0.20 44.0 0 1 387.29 360.68&#10;  Q 391.46 356.17 393.67 352.92&#10;  C 397.88 346.70 400.13 337.44 397.47 330.03&#10;  C 393.38 318.64 384.97 311.45 375.84 303.82&#10;  A 0.65 0.64 -57.5 0 0 374.84 304.05&#10;  C 370.09 314.26 368.14 324.86 370.48 336.21&#10;  Q 373.03 348.55 381.49 358.89&#10;  C 382.56 360.20 383.29 361.49 384.94 362.10&#10;  A 0.53 0.52 -60.5 0 1 385.17 362.93&#10;  Q 381.93 366.74 379.73 368.73&#10;  Q 362.61 384.18 344.88 394.91&#10;  A 1.99 1.95 24.5 0 1 344.19 395.16&#10;  C 342.65 395.42 341.47 397.10 339.95 398.10&#10;  C 325.33 407.68 305.04 415.16 287.29 423.04&#10;  Q 284.05 424.48 279.75 424.96&#10;  A 0.98 0.97 -78.7 0 1 278.79 423.51&#10;  Q 285.82 411.03 289.09 397.55&#10;  Q 289.62 395.34 289.77 387.65&#10;  C 289.91 380.95 290.04 375.13 286.18 369.59&#10;  C 283.77 366.14 279.85 366.27 275.81 366.84&#10;  C 270.56 367.59 268.22 374.72 267.75 379.22&#10;  Q 267.47 381.95 266.19 384.97&#10;  A 6.58 6.51 58.1 0 0 265.67 387.27&#10;  L 264.66 410.10&#10;  A 0.11 0.11 0.0 0 1 264.50 410.19&#10;  L 264.10 409.96&#10;  A 0.24 0.22 16.2 0 1 263.98 409.76&#10;  Q 263.50 398.04 262.44 386.81&#10;  C 262.05 382.72 260.89 378.23 259.72 374.79&#10;  Q 258.20 370.32 254.81 367.67&#10;  A 2.79 2.75 71.9 0 0 253.88 367.19&#10;  Q 251.24 366.41 247.99 366.58&#10;  C 242.27 366.87 240.87 370.54 239.23 375.31&#10;  Q 238.13 378.49 238.17 380.76&#10;  Q 238.28 386.68 238.31 393.40&#10;  A 8.27 8.06 39.1 0 0 238.53 395.28&#10;  Q 241.85 409.66 249.32 423.49&#10;  A 0.96 0.95 -14.0 0 1 248.47 424.90&#10;  Q 246.13 424.88 243.12 423.87&#10;  C 237.50 421.98 233.02 419.49 227.43 417.25&#10;  Q 215.50 412.47 201.11 405.35&#10;  Q 193.28 401.48 186.12 396.87&#10;  A 0.58 0.57 32.4 0 1 185.94 396.08&#10;  C 187.80 393.06 189.87 387.52 190.06 383.60&#10;  C 190.34 377.59 190.51 371.28 188.08 366.18&#10;  C 184.11 357.84 178.95 352.15 171.47 345.09&#10;  Q 170.37 344.06 168.67 343.21&#10;  A 1.07 1.07 0.0 0 0 167.71 343.21&#10;  Q 166.52 343.80 166.00 345.77&#10;  C 162.15 360.44 160.80 373.42 171.77 385.47&#10;  Q 174.69 388.68 178.31 391.10&#10;  A 0.24 0.24 0.0 0 1 178.39 391.42&#10;  L 178.39 391.43&#10;  A 0.29 0.29 0.0 0 1 178.02 391.55&#10;  Q 176.94 391.05 174.12 389.12&#10;  Q 157.39 377.61 144.91 365.32&#10;  Q 143.92 364.34 143.09 362.80&#10;  A 0.60 0.59 -32.3 0 1 143.27 362.04&#10;  Q 145.99 360.07 147.62 357.87&#10;  C 154.40 348.64 159.07 337.28 158.73 325.80&#10;  Q 158.38 314.27 153.31 304.22&#10;  A 0.81 0.80 -33.0 0 0 152.08 303.96&#10;  Q 145.67 309.27 139.88 315.39&#10;  C 129.67 326.17 125.56 339.15 134.44 352.65&#10;  A 0.12 0.12 0.0 0 1 134.40 352.82&#10;  L 134.16 352.96&#10;  A 0.34 0.33 57.1 0 1 133.72 352.86&#10;  C 129.38 346.40 124.96 341.02 121.43 334.23&#10;  Q 114.15 320.23 110.73 305.08&#10;  C 109.01 297.47 107.39 288.58 107.10 280.24&#10;  Q 106.94 275.79 106.36 265.13&#10;  Q 106.13 260.96 107.07 245.19&#10;  Q 107.31 241.21 108.06 237.99&#10;  C 109.38 232.32 110.40 224.99 111.63 220.17&#10;  Q 114.43 209.25 119.99 196.00&#10;  A 0.91 0.90 20.3 0 1 121.11 195.49&#10;  Q 123.47 196.25 126.01 195.76&#10;  C 142.49 192.65 160.28 185.83 168.93 170.39&#10;  C 170.64 167.34 172.36 164.29 172.78 161.04&#10;  A 0.79 0.78 -89.1 0 0 171.94 160.16&#10;  C 158.76 161.38 147.07 165.10 136.35 173.12&#10;  Q 128.51 178.98 123.85 188.03&#10;  A 0.11 0.10 -62.3 0 1 123.71 188.08&#10;  L 123.70 188.08&#10;  A 0.15 0.14 -64.4 0 1 123.64 187.89&#10;  Q 131.33 171.34 131.66 170.68&#10;  Q 134.13 165.80 135.55 163.71&#10;  A 4.65 4.62 -81.0 0 1 138.06 161.87&#10;  C 152.11 157.70 163.51 151.65 166.34 135.98&#10;  Q 167.33 130.52 167.23 125.51&#10;  Q 167.18 123.13 168.93 121.41&#10;  Q 175.80 114.63 186.35 105.13&#10;  Q 189.07 102.68 189.93 100.39&#10;  A 0.43 0.43 0.0 0 0 189.33 99.86&#10;  Q 186.31 101.45 184.84 102.59&#10;  Q 174.19 110.81 164.88 119.70&#10;  A 9.43 9.31 16.1 0 1 160.57 122.04&#10;  Q 153.49 123.71 151.79 124.26&#10;  Q 134.42 129.85 131.87 146.83&#10;  C 131.25 150.98 131.57 155.48 131.65 161.53&#10;  A 4.00 3.77 53.9 0 1 131.51 162.64&#10;  Q 130.87 164.90 129.75 166.75&#10;  Q 125.78 173.34 122.69 179.24&#10;  A 0.13 0.13 0.0 0 1 122.45 179.16&#10;  Q 124.14 167.63 121.58 156.37&#10;  Q 118.33 142.16 116.07 134.77&#10;  Q 115.37 132.48 114.44 130.89&#10;  A 0.44 0.43 48.6 0 0 113.72 130.84&#10;  Q 106.95 139.65 101.22 148.23&#10;  C 93.37 159.98 90.39 172.78 101.18 183.89&#10;  Q 104.28 187.08 109.50 190.82&#10;  Q 113.49 193.68 116.18 190.22&#10;  Q 119.26 186.25 120.23 183.97&#10;  A 0.24 0.24 0.0 0 1 120.69 184.09&#10;  Q 120.69 184.12 120.32 184.70&#10;  Q 119.41 186.13 118.94 187.32&#10;  Q 114.37 198.81 108.75 215.21&#10;  Q 107.30 219.45 106.19 224.07&#10;  Q 105.47 227.08 105.37 227.86&#10;  C 104.97 231.32 104.09 234.14 103.69 237.47&#10;  Q 101.07 259.19 100.80 271.52&#10;  Q 100.61 280.02 102.36 289.38&#10;  Q 104.65 301.60 104.77 302.74&#10;  Q 105.15 306.31 106.40 308.65&#10;  Q 106.93 309.64 108.16 314.46&#10;  Q 109.04 317.90 111.33 322.87&#10;  Q 120.57 342.99 131.71 357.06&#10;  Q 139.63 367.06 155.16 381.34&#10;  Q 155.60 381.74 159.08 384.05&#10;  A 0.03 0.02 38.0 0 1 159.09 384.09&#10;  Q 159.08 384.11 159.06 384.12&#10;  A 0.12 0.03 25.5 0 1 158.95 384.10&#10;  Q 145.67 378.59 136.45 377.15&#10;  Q 127.25 375.72 111.87 374.13&#10;  Q 107.53 373.68 103.91 374.10&#10;  A 0.90 0.90 0.0 0 0 103.18 375.34&#10;  C 109.37 389.91 119.99 399.32 135.58 402.12&#10;  Q 145.58 403.92 147.50 404.05&#10;  C 156.40 404.64 167.41 405.13 174.90 402.16&#10;  A 0.61 0.61 0.0 0 0 175.24 401.34&#10;  Q 172.27 394.69 166.45 389.81&#10;  Q 166.10 389.52 165.96 389.32&#10;  A 0.21 0.21 0.0 0 1 166.20 389.01&#10;  Q 166.21 389.02 169.10 391.24&#10;  Q 170.70 392.48 171.97 393.20&#10;  C 179.34 397.38 187.63 402.78 195.66 407.19&#10;  Q 213.20 416.81 232.20 424.25&#10;  C 239.08 426.94 244.71 430.23 249.67 434.16&#10;  A 0.71 0.71 0.0 0 1 249.63 435.30&#10;  Q 247.77 436.54 245.63 437.38&#10;  Q 240.14 439.54 208.38 451.85&#10;  Q 206.86 452.44 206.13 453.32&#10;  A 1.24 1.24 0.0 0 0 206.13 454.90&#10;  Q 211.03 460.78 217.94 464.85&#10;  C 221.64 467.03 225.25 466.85 228.79 466.83&#10;  Q 230.33 466.82 234.06 464.57&#10;  Q 251.44 454.11 260.86 446.09&#10;  C 262.38 444.80 264.30 444.05 266.01 445.30&#10;  Q 279.78 455.38 285.64 459.36&#10;  Q 285.65 459.37 296.83 465.99&#10;  A 5.29 5.25 -26.0 0 0 298.95 466.71&#10;  Q 304.34 467.36 307.76 465.98&#10;  Q 314.99 463.08 321.49 455.52&#10;  Q 322.55 454.29 321.98 453.30&#10;  Q 321.57 452.57 320.00 451.93&#10;  Q 308.70 447.34 284.57 438.19&#10;  C 282.67 437.46 280.64 436.21 278.60 435.16&#10;  A 0.60 0.60 0.0 0 1 278.51 434.14&#10;  C 283.43 430.45 289.43 426.81 295.27 424.45&#10;  C 298.28 423.23 302.74 421.68 307.08 419.57&#10;  C 310.36 417.98 319.30 414.41 325.35 411.08&#10;  Q 327.27 410.03 331.55 407.74&#10;  Q 346.22 399.90 362.99 388.18&#10;  A 0.05 0.02 -10.7 0 1 363.06 388.20&#10;  Q 363.02 388.24 363.00 388.27&#10;  A 0.32 0.02 -60.8 0 1 362.85 388.50&#10;  Q 359.23 391.89 355.81 395.70&#10;  A 0.96 0.72 -18.6 0 0 355.68 395.89&#10;  L 352.97 401.15&#10;  A 0.64 0.64 0.0 0 0 353.34 402.05&#10;  Q 359.22 403.90 365.50 404.28&#10;  Q 379.15 405.11 393.21 402.15&#10;  Q 416.14 397.32 424.81 375.18&#10;  A 0.73 0.73 0.0 0 0 424.26 374.19&#10;  C 419.53 373.31 413.08 374.56 402.50 375.66&#10;  C 390.48 376.91 380.11 379.28 370.26 383.52&#10;  A 0.12 0.12 0.0 0 1 370.15 383.31&#10;  C 377.48 378.13 384.36 370.77 391.81 362.49&#10;  C 396.63 357.11 401.52 350.16 404.84 345.10&#10;  Q 410.26 336.81 415.17 325.77&#10;  Q 416.53 322.71 417.21 321.44&#10;  C 419.27 317.64 419.79 313.86 421.11 310.33&#10;  Q 422.26 307.25 423.07 303.59&#10;  C 425.45 292.89 427.42 282.01 427.17 271.75&#10;  C 427.04 266.79 426.79 254.12 425.35 245.60&#10;  Q 424.62 241.26 424.17 236.78&#10;  Q 423.67 231.67 420.95 219.98&#10;  Q 420.08 216.20 409.37 188.04&#10;  A 0.79 0.79 0.0 0 1 410.80 187.36"/>
<path stroke="#ff8000" d="&#10;  M 86.79 179.83&#10;  Q 85.41 181.74 84.22 184.27&#10;  C 78.79 195.86 72.90 212.66 82.55 223.53&#10;  Q 88.44 230.18 97.11 233.47&#10;  A 2.32 2.31 -63.6 0 0 99.91 232.52&#10;  Q 103.86 226.08 103.94 218.74&#10;  C 104.03 210.59 103.65 206.05 100.63 200.08&#10;  Q 95.30 189.54 87.32 179.81&#10;  A 0.34 0.34 0.0 0 0 86.79 179.83"/>
<path stroke="#ff8000" d="&#10;  M 441.25 179.92&#10;  A 0.34 0.33 -42.8 0 0 440.72 179.90&#10;  Q 432.78 189.63 427.47 200.17&#10;  C 424.47 206.13 424.10 210.67 424.20 218.80&#10;  Q 424.30 226.13 428.26 232.55&#10;  A 2.31 2.30 63.5 0 0 431.05 233.50&#10;  Q 439.70 230.20 445.57 223.54&#10;  C 455.19 212.67 449.27 195.91 443.83 184.35&#10;  Q 442.63 181.82 441.25 179.92"/>
<path stroke="#ff8000" d="&#10;  M 252.14 248.00&#10;  C 252.14 263.46 252.58 273.03 251.72 280.08&#10;  A 1.25 1.24 -86.8 0 1 250.50 281.18&#10;  Q 236.70 281.32 205.75 281.31&#10;  Q 203.00 281.31 201.59 281.91&#10;  A 1.41 1.40 78.7 0 0 200.73 283.21&#10;  L 200.73 307.88&#10;  A 1.28 1.26 2.5 0 0 201.90 309.14&#10;  Q 205.44 309.43 208.75 309.45&#10;  Q 221.00 309.51 264.06 309.51&#10;  Q 307.13 309.51 319.38 309.45&#10;  Q 322.69 309.44 326.23 309.15&#10;  A 1.28 1.26 -2.5 0 0 327.40 307.89&#10;  L 327.40 283.22&#10;  A 1.41 1.40 -78.7 0 0 326.54 281.92&#10;  Q 325.13 281.32 322.38 281.32&#10;  Q 291.43 281.32 277.63 281.18&#10;  A 1.25 1.24 86.8 0 1 276.41 280.09&#10;  C 275.56 273.03 276.00 263.46 276.00 248.00&#10;  C 276.00 232.54 275.56 222.97 276.41 215.91&#10;  A 1.25 1.24 -86.8 0 1 277.64 214.82&#10;  Q 291.44 214.68 322.39 214.69&#10;  Q 325.14 214.69 326.55 214.09&#10;  A 1.41 1.40 78.7 0 0 327.41 212.79&#10;  L 327.41 188.12&#10;  A 1.28 1.26 2.5 0 0 326.24 186.86&#10;  Q 322.70 186.57 319.39 186.55&#10;  Q 307.14 186.49 264.07 186.49&#10;  Q 221.01 186.48 208.76 186.54&#10;  Q 205.45 186.56 201.91 186.85&#10;  A 1.28 1.26 -2.5 0 0 200.74 188.11&#10;  L 200.74 212.78&#10;  A 1.41 1.40 -78.7 0 0 201.60 214.08&#10;  Q 203.01 214.68 205.76 214.68&#10;  Q 236.71 214.67 250.51 214.81&#10;  A 1.25 1.24 86.8 0 1 251.73 215.91&#10;  C 252.58 222.97 252.14 232.54 252.14 248.00"/>
<path stroke="#ff8000" d="&#10;  M 153.40 195.63&#10;  A 1.40 1.39 79.2 0 0 151.60 194.40&#10;  Q 136.27 199.06 124.56 208.77&#10;  C 116.44 215.50 109.67 226.23 109.78 237.72&#10;  A 1.26 1.25 82.1 0 0 111.36 238.92&#10;  Q 120.68 236.47 128.78 232.06&#10;  Q 149.77 220.62 153.26 197.23&#10;  Q 153.44 196.03 153.40 195.63"/>
<path stroke="#ff8000" d="&#10;  M 374.81 195.69&#10;  Q 374.77 196.09 374.94 197.29&#10;  Q 378.38 220.59 399.27 232.01&#10;  Q 407.33 236.42 416.61 238.87&#10;  A 1.25 1.25 0.0 0 0 418.19 237.68&#10;  C 418.31 226.23 411.59 215.54 403.51 208.82&#10;  Q 391.86 199.13 376.60 194.47&#10;  A 1.40 1.39 -79.1 0 0 374.81 195.69"/>
<path stroke="#ff8000" d="&#10;  M 96.39 277.22&#10;  Q 96.64 276.66 96.70 275.23&#10;  C 96.98 268.08 97.44 262.62 95.66 256.07&#10;  Q 90.44 236.90 73.50 225.25&#10;  Q 71.98 224.20 70.48 223.78&#10;  A 1.40 1.39 -70.7 0 0 68.82 224.58&#10;  C 63.24 237.64 64.78 251.66 74.16 262.57&#10;  Q 82.53 272.31 94.28 277.98&#10;  A 1.57 1.57 0.0 0 0 96.39 277.22"/>
<path stroke="#ff8000" d="&#10;  M 431.82 277.22&#10;  A 1.57 1.57 0.0 0 0 433.93 277.98&#10;  Q 445.66 272.30 454.02 262.56&#10;  C 463.38 251.64 464.90 237.63 459.31 224.58&#10;  A 1.40 1.39 70.6 0 0 457.65 223.78&#10;  Q 456.15 224.20 454.63 225.26&#10;  Q 437.72 236.92 432.52 256.08&#10;  C 430.75 262.63 431.22 268.09 431.50 275.24&#10;  Q 431.57 276.66 431.82 277.22"/>
<path stroke="#ff8000" d="&#10;  M 141.12 232.86&#10;  A 0.27 0.27 0.0 0 0 140.75 232.64&#10;  C 128.61 237.49 114.94 247.25 110.18 259.21&#10;  Q 106.60 268.22 109.02 278.94&#10;  A 1.94 1.93 71.3 0 0 111.71 280.27&#10;  Q 134.09 270.10 140.23 247.00&#10;  C 141.55 242.04 141.72 237.57 141.12 232.86"/>
<path stroke="#ff8000" d="&#10;  M 386.97 232.86&#10;  C 386.37 237.56 386.54 242.01 387.86 246.95&#10;  Q 393.99 269.97 416.30 280.10&#10;  A 1.93 1.93 0.0 0 0 418.98 278.77&#10;  Q 421.38 268.09 417.81 259.11&#10;  C 413.06 247.19 399.44 237.47 387.34 232.64&#10;  A 0.27 0.27 0.0 0 0 386.97 232.86"/>
<path stroke="#ff8000" d="&#10;  M 382.69 267.15&#10;  A 0.45 0.45 0.0 0 0 382.03 267.37&#10;  Q 380.45 271.33 380.06 275.20&#10;  C 377.89 296.56 389.58 312.34 408.07 321.16&#10;  A 1.69 1.69 0.0 0 0 410.10 320.72&#10;  Q 411.46 319.10 412.08 316.57&#10;  C 416.53 298.40 402.07 284.06 390.05 272.82&#10;  Q 386.57 269.57 382.69 267.15"/>
<path stroke="#ff8000" d="&#10;  M 145.35 267.25&#10;  Q 141.48 269.66 138.00 272.91&#10;  C 126.01 284.12 111.58 298.43 116.02 316.56&#10;  Q 116.64 319.09 118.00 320.70&#10;  A 1.69 1.68 -32.6 0 0 120.03 321.14&#10;  C 138.47 312.34 150.14 296.59 147.97 275.28&#10;  Q 147.58 271.42 146.01 267.47&#10;  A 0.45 0.45 0.0 0 0 145.35 267.25"/>
<path stroke="#ff8000" d="&#10;  M 65.44 270.09&#10;  A 0.61 0.60 13.9 0 0 64.62 270.58&#10;  Q 63.51 279.62 65.88 289.76&#10;  C 70.47 309.43 87.00 320.76 105.99 324.77&#10;  A 1.92 1.80 -42.4 0 0 106.68 324.78&#10;  Q 108.85 324.44 108.67 322.25&#10;  Q 107.35 306.65 96.80 295.24&#10;  Q 88.63 286.42 81.95 281.31&#10;  Q 71.55 273.35 69.52 272.20&#10;  Q 66.50 270.50 65.44 270.09"/>
<path stroke="#ff8000" d="&#10;  M 462.59 270.29&#10;  Q 461.54 270.70 458.52 272.39&#10;  Q 456.49 273.53 446.10 281.45&#10;  Q 439.42 286.53 431.25 295.31&#10;  Q 420.70 306.67 419.35 322.23&#10;  Q 419.17 324.42 421.33 324.76&#10;  A 1.91 1.80 42.5 0 0 422.02 324.75&#10;  C 440.97 320.79 457.49 309.53 462.11 289.91&#10;  Q 464.50 279.80 463.41 270.78&#10;  A 0.61 0.60 -13.8 0 0 462.59 270.29"/>
<path stroke="#ff8000" d="&#10;  M 397.57 365.43&#10;  A 0.65 0.64 -83.8 0 0 398.16 366.17&#10;  C 403.97 366.63 409.00 365.41 415.42 364.39&#10;  Q 418.73 363.86 424.31 361.77&#10;  Q 439.51 356.06 447.35 342.93&#10;  Q 452.83 333.77 454.85 323.16&#10;  A 0.17 0.17 0.0 0 0 454.65 322.96&#10;  Q 450.77 323.68 446.62 325.22&#10;  Q 436.89 328.83 425.13 335.46&#10;  C 414.39 341.51 399.38 352.86 397.57 365.43"/>
<path stroke="#ff8000" d="&#10;  M 130.54 365.39&#10;  C 128.73 352.79 113.68 341.42 102.92 335.37&#10;  Q 91.13 328.73 81.38 325.11&#10;  Q 77.22 323.57 73.33 322.85&#10;  A 0.17 0.17 0.0 0 0 73.13 323.05&#10;  Q 75.16 333.68 80.66 342.86&#10;  Q 88.52 356.01 103.75 361.73&#10;  Q 109.34 363.82 112.66 364.35&#10;  C 119.09 365.37 124.13 366.59 129.95 366.13&#10;  A 0.65 0.64 83.8 0 0 130.54 365.39"/>
<path stroke="#ff8000" d="&#10;  M 343.49 394.84&#10;  Q 343.81 394.50 344.58 394.14&#10;  Q 358.19 387.84 363.55 373.54&#10;  C 366.80 364.86 364.71 352.36 361.31 344.45&#10;  Q 361.03 343.79 360.53 343.28&#10;  A 1.39 1.39 0.0 0 0 358.56 343.27&#10;  Q 353.69 348.17 348.56 353.28&#10;  Q 343.65 358.17 339.12 368.13&#10;  A 6.18 6.14 -29.2 0 0 338.63 369.84&#10;  C 337.59 377.74 337.23 386.90 341.25 394.54&#10;  A 1.39 1.39 0.0 0 0 343.49 394.84"/>
<path stroke="#ff8000" d="&#10;  M 237.57 416.05&#10;  Q 237.27 408.75 234.92 402.14&#10;  C 231.11 391.45 221.40 382.07 211.66 375.66&#10;  C 209.11 373.99 206.28 371.97 203.09 370.84&#10;  A 1.03 1.03 0.0 0 0 201.83 371.34&#10;  Q 200.77 373.39 200.59 375.93&#10;  C 200.23 380.90 199.93 387.59 201.24 392.18&#10;  C 205.03 405.59 214.52 412.25 227.52 415.75&#10;  Q 232.04 416.96 236.87 416.80&#10;  A 0.72 0.72 0.0 0 0 237.57 416.05"/>
<path stroke="#ff8000" d="&#10;  M 290.47 416.13&#10;  A 0.72 0.72 0.0 0 0 291.17 416.88&#10;  Q 296.00 417.05 300.53 415.84&#10;  C 313.54 412.34 323.04 405.68 326.84 392.27&#10;  C 328.15 387.67 327.86 380.98 327.50 376.00&#10;  Q 327.32 373.46 326.26 371.41&#10;  A 1.03 1.03 0.0 0 0 325.00 370.91&#10;  C 321.81 372.04 318.97 374.06 316.42 375.73&#10;  C 306.67 382.14 296.95 391.52 293.13 402.21&#10;  Q 290.77 408.83 290.47 416.13"/>
<path stroke="#ff8000" d="&#10;  M 148.25 420.68&#10;  A 0.30 0.30 0.0 0 0 148.28 421.20&#10;  Q 164.36 428.84 181.72 432.37&#10;  Q 188.65 433.78 195.87 433.77&#10;  Q 208.53 433.76 210.11 433.62&#10;  Q 220.16 432.76 229.50 428.11&#10;  A 1.33 1.33 0.0 0 0 229.74 425.89&#10;  Q 218.71 416.98 204.92 414.74&#10;  Q 192.37 412.70 181.02 413.74&#10;  Q 165.62 415.17 151.49 419.17&#10;  Q 149.81 419.65 148.25 420.68"/>
<path stroke="#ff8000" d="&#10;  M 379.71 420.71&#10;  Q 378.16 419.68 376.48 419.20&#10;  Q 362.38 415.20 347.01 413.76&#10;  Q 335.69 412.71 323.16 414.73&#10;  Q 309.39 416.96 298.38 425.84&#10;  A 1.33 1.32 -51.2 0 0 298.61 428.06&#10;  Q 307.93 432.70 317.96 433.57&#10;  Q 319.54 433.71 332.17 433.73&#10;  Q 339.38 433.75 346.30 432.35&#10;  Q 363.63 428.84 379.68 421.23&#10;  A 0.30 0.30 0.0 0 0 379.71 420.71"/>
<path stroke="#ff8000" d="&#10;  M 273.91 421.62&#10;  Q 275.38 421.12 276.46 419.19&#10;  Q 285.31 403.44 286.26 385.51&#10;  C 286.52 380.60 284.89 368.51 276.62 370.48&#10;  Q 273.20 371.29 272.07 373.36&#10;  Q 269.18 378.61 269.24 385.75&#10;  C 269.28 390.76 269.20 395.07 269.82 399.41&#10;  C 270.71 405.71 270.86 413.62 272.57 420.88&#10;  A 1.03 1.03 0.0 0 0 273.91 421.62"/>
<path stroke="#ff8000" d="&#10;  M 254.16 421.56&#10;  A 1.03 1.03 0.0 0 0 255.50 420.82&#10;  C 257.18 413.58 257.30 405.70 258.17 399.42&#10;  C 258.77 395.09 258.68 390.79 258.70 385.80&#10;  Q 258.74 378.68 255.84 373.46&#10;  Q 254.71 371.40 251.30 370.61&#10;  C 243.05 368.67 241.47 380.72 241.74 385.61&#10;  Q 242.74 403.48 251.61 419.15&#10;  Q 252.70 421.07 254.16 421.56"/>
</g>
<path fill="#ff0000" d="&#10;  M 272.06 0.00&#10;  Q 290.69 0.98 299.99 2.25&#10;  Q 352.32 9.37 396.69 34.52&#10;  C 452.38 66.10 494.85 116.52 516.44 177.00&#10;  Q 526.40 204.90 530.03 235.29&#10;  Q 530.55 239.66 531.08 247.75&#10;  Q 531.49 254.00 532.00 260.24&#10;  L 532.00 271.39&#10;  C 531.39 279.89 530.98 288.91 530.02 296.84&#10;  Q 523.17 353.91 494.23 402.22&#10;  Q 459.39 460.36 400.73 495.08&#10;  Q 351.61 524.14 292.80 530.54&#10;  C 287.02 531.17 279.28 531.37 272.52 532.00&#10;  L 259.62 532.00&#10;  Q 239.16 530.95 224.75 528.69&#10;  C 179.84 521.66 136.21 502.57 100.37 473.85&#10;  Q 61.55 442.75 36.93 400.84&#10;  Q 8.61 352.63 1.97 296.81&#10;  C 1.03 288.92 0.61 279.96 0.00 271.52&#10;  L 0.00 260.37&#10;  C 0.61 253.44 0.85 245.85 1.50 239.56&#10;  Q 7.53 180.46 37.85 129.62&#10;  Q 65.72 82.91 110.48 50.52&#10;  Q 164.63 11.34 232.23 2.23&#10;  Q 240.22 1.15 259.73 0.00&#10;  L 272.06 0.00&#10;  Z&#10;  M 273.29 83.16&#10;  A 0.78 0.78 0.0 0 1 272.60 82.66&#10;  L 264.81 62.01&#10;  A 0.78 0.78 0.0 0 0 263.35 62.01&#10;  L 255.56 82.66&#10;  A 0.78 0.78 0.0 0 1 254.87 83.16&#10;  L 232.83 84.19&#10;  A 0.78 0.78 0.0 0 0 232.38 85.58&#10;  L 249.60 99.36&#10;  A 0.78 0.78 0.0 0 1 249.87 100.18&#10;  L 244.04 121.46&#10;  A 0.78 0.78 0.0 0 0 245.22 122.31&#10;  L 263.65 110.19&#10;  A 0.78 0.78 0.0 0 1 264.51 110.19&#10;  L 282.94 122.31&#10;  A 0.78 0.78 0.0 0 0 284.12 121.46&#10;  L 278.29 100.18&#10;  A 0.78 0.78 0.0 0 1 278.56 99.36&#10;  L 295.78 85.58&#10;  A 0.78 0.78 0.0 0 0 295.33 84.19&#10;  L 273.29 83.16&#10;  Z&#10;  M 410.80 187.36&#10;  L 412.81 190.85&#10;  A 2.76 2.76 0.0 0 0 416.06 192.09&#10;  C 418.06 191.42 419.69 190.07 421.42 188.74&#10;  C 432.90 179.93 438.19 168.78 430.74 155.03&#10;  Q 424.97 144.38 415.12 131.89&#10;  Q 414.47 131.06 414.01 130.87&#10;  A 0.60 0.59 -70.6 0 0 413.22 131.25&#10;  Q 409.45 143.32 406.63 155.89&#10;  C 405.03 163.00 404.93 169.13 405.12 175.32&#10;  Q 405.19 177.62 406.27 180.19&#10;  A 0.15 0.14 -28.5 0 1 406.21 180.38&#10;  L 406.20 180.38&#10;  A 0.15 0.14 61.5 0 1 406.01 180.32&#10;  Q 401.80 172.96 397.36 165.15&#10;  Q 396.20 163.11 396.30 161.24&#10;  C 396.60 155.14 396.94 148.76 395.52 143.31&#10;  C 392.05 129.96 381.83 125.17 368.98 122.48&#10;  C 367.32 122.14 364.78 121.23 363.87 120.38&#10;  C 356.07 113.09 348.63 105.84 339.89 100.35&#10;  Q 339.07 99.84 338.63 99.83&#10;  A 0.64 0.64 0.0 0 0 338.08 100.82&#10;  Q 340.00 103.80 343.05 106.46&#10;  Q 350.69 113.13 359.29 121.55&#10;  A 5.19 5.19 0.0 0 1 360.85 125.51&#10;  Q 360.44 133.90 363.52 142.12&#10;  C 367.53 152.86 379.57 159.35 390.07 161.85&#10;  A 4.23 4.21 -8.2 0 1 392.76 163.85&#10;  C 394.38 166.67 397.40 172.09 399.30 176.71&#10;  Q 403.55 187.02 404.14 187.65&#10;  A 0.04 0.04 0.0 0 1 404.13 187.71&#10;  L 403.83 187.88&#10;  A 0.16 0.15 63.5 0 1 403.61 187.80&#10;  Q 401.18 181.43 396.35 177.05&#10;  C 384.39 166.23 371.53 161.34 355.68 160.20&#10;  A 0.61 0.61 0.0 0 0 355.05 160.99&#10;  C 358.56 172.71 366.55 181.60 377.39 187.39&#10;  Q 386.00 191.99 393.26 193.71&#10;  C 398.23 194.89 402.46 196.53 406.53 195.74&#10;  A 1.32 1.31 -18.4 0 1 407.96 196.45&#10;  C 411.43 203.63 414.41 211.59 416.10 219.60&#10;  C 417.48 226.16 418.42 229.64 419.18 234.69&#10;  Q 419.59 237.35 420.38 239.79&#10;  A 9.55 9.49 -55.8 0 1 420.83 242.19&#10;  Q 422.51 269.84 420.31 288.53&#10;  Q 418.29 305.69 411.95 322.49&#10;  Q 408.20 332.43 403.38 339.65&#10;  Q 397.54 348.40 396.04 350.72&#10;  Q 393.34 354.87 387.52 360.96&#10;  A 0.16 0.15 43.6 0 1 387.31 360.96&#10;  L 387.30 360.96&#10;  A 0.21 0.20 44.0 0 1 387.29 360.68&#10;  Q 391.46 356.17 393.67 352.92&#10;  C 397.88 346.70 400.13 337.44 397.47 330.03&#10;  C 393.38 318.64 384.97 311.45 375.84 303.82&#10;  A 0.65 0.64 -57.5 0 0 374.84 304.05&#10;  C 370.09 314.26 368.14 324.86 370.48 336.21&#10;  Q 373.03 348.55 381.49 358.89&#10;  C 382.56 360.20 383.29 361.49 384.94 362.10&#10;  A 0.53 0.52 -60.5 0 1 385.17 362.93&#10;  Q 381.93 366.74 379.73 368.73&#10;  Q 362.61 384.18 344.88 394.91&#10;  A 1.99 1.95 24.5 0 1 344.19 395.16&#10;  C 342.65 395.42 341.47 397.10 339.95 398.10&#10;  C 325.33 407.68 305.04 415.16 287.29 423.04&#10;  Q 284.05 424.48 279.75 424.96&#10;  A 0.98 0.97 -78.7 0 1 278.79 423.51&#10;  Q 285.82 411.03 289.09 397.55&#10;  Q 289.62 395.34 289.77 387.65&#10;  C 289.91 380.95 290.04 375.13 286.18 369.59&#10;  C 283.77 366.14 279.85 366.27 275.81 366.84&#10;  C 270.56 367.59 268.22 374.72 267.75 379.22&#10;  Q 267.47 381.95 266.19 384.97&#10;  A 6.58 6.51 58.1 0 0 265.67 387.27&#10;  L 264.66 410.10&#10;  A 0.11 0.11 0.0 0 1 264.50 410.19&#10;  L 264.10 409.96&#10;  A 0.24 0.22 16.2 0 1 263.98 409.76&#10;  Q 263.50 398.04 262.44 386.81&#10;  C 262.05 382.72 260.89 378.23 259.72 374.79&#10;  Q 258.20 370.32 254.81 367.67&#10;  A 2.79 2.75 71.9 0 0 253.88 367.19&#10;  Q 251.24 366.41 247.99 366.58&#10;  C 242.27 366.87 240.87 370.54 239.23 375.31&#10;  Q 238.13 378.49 238.17 380.76&#10;  Q 238.28 386.68 238.31 393.40&#10;  A 8.27 8.06 39.1 0 0 238.53 395.28&#10;  Q 241.85 409.66 249.32 423.49&#10;  A 0.96 0.95 -14.0 0 1 248.47 424.90&#10;  Q 246.13 424.88 243.12 423.87&#10;  C 237.50 421.98 233.02 419.49 227.43 417.25&#10;  Q 215.50 412.47 201.11 405.35&#10;  Q 193.28 401.48 186.12 396.87&#10;  A 0.58 0.57 32.4 0 1 185.94 396.08&#10;  C 187.80 393.06 189.87 387.52 190.06 383.60&#10;  C 190.34 377.59 190.51 371.28 188.08 366.18&#10;  C 184.11 357.84 178.95 352.15 171.47 345.09&#10;  Q 170.37 344.06 168.67 343.21&#10;  A 1.07 1.07 0.0 0 0 167.71 343.21&#10;  Q 166.52 343.80 166.00 345.77&#10;  C 162.15 360.44 160.80 373.42 171.77 385.47&#10;  Q 174.69 388.68 178.31 391.10&#10;  A 0.24 0.24 0.0 0 1 178.39 391.42&#10;  L 178.39 391.43&#10;  A 0.29 0.29 0.0 0 1 178.02 391.55&#10;  Q 176.94 391.05 174.12 389.12&#10;  Q 157.39 377.61 144.91 365.32&#10;  Q 143.92 364.34 143.09 362.80&#10;  A 0.60 0.59 -32.3 0 1 143.27 362.04&#10;  Q 145.99 360.07 147.62 357.87&#10;  C 154.40 348.64 159.07 337.28 158.73 325.80&#10;  Q 158.38 314.27 153.31 304.22&#10;  A 0.81 0.80 -33.0 0 0 152.08 303.96&#10;  Q 145.67 309.27 139.88 315.39&#10;  C 129.67 326.17 125.56 339.15 134.44 352.65&#10;  A 0.12 0.12 0.0 0 1 134.40 352.82&#10;  L 134.16 352.96&#10;  A 0.34 0.33 57.1 0 1 133.72 352.86&#10;  C 129.38 346.40 124.96 341.02 121.43 334.23&#10;  Q 114.15 320.23 110.73 305.08&#10;  C 109.01 297.47 107.39 288.58 107.10 280.24&#10;  Q 106.94 275.79 106.36 265.13&#10;  Q 106.13 260.96 107.07 245.19&#10;  Q 107.31 241.21 108.06 237.99&#10;  C 109.38 232.32 110.40 224.99 111.63 220.17&#10;  Q 114.43 209.25 119.99 196.00&#10;  A 0.91 0.90 20.3 0 1 121.11 195.49&#10;  Q 123.47 196.25 126.01 195.76&#10;  C 142.49 192.65 160.28 185.83 168.93 170.39&#10;  C 170.64 167.34 172.36 164.29 172.78 161.04&#10;  A 0.79 0.78 -89.1 0 0 171.94 160.16&#10;  C 158.76 161.38 147.07 165.10 136.35 173.12&#10;  Q 128.51 178.98 123.85 188.03&#10;  A 0.11 0.10 -62.3 0 1 123.71 188.08&#10;  L 123.70 188.08&#10;  A 0.15 0.14 -64.4 0 1 123.64 187.89&#10;  Q 131.33 171.34 131.66 170.68&#10;  Q 134.13 165.80 135.55 163.71&#10;  A 4.65 4.62 -81.0 0 1 138.06 161.87&#10;  C 152.11 157.70 163.51 151.65 166.34 135.98&#10;  Q 167.33 130.52 167.23 125.51&#10;  Q 167.18 123.13 168.93 121.41&#10;  Q 175.80 114.63 186.35 105.13&#10;  Q 189.07 102.68 189.93 100.39&#10;  A 0.43 0.43 0.0 0 0 189.33 99.86&#10;  Q 186.31 101.45 184.84 102.59&#10;  Q 174.19 110.81 164.88 119.70&#10;  A 9.43 9.31 16.1 0 1 160.57 122.04&#10;  Q 153.49 123.71 151.79 124.26&#10;  Q 134.42 129.85 131.87 146.83&#10;  C 131.25 150.98 131.57 155.48 131.65 161.53&#10;  A 4.00 3.77 53.9 0 1 131.51 162.64&#10;  Q 130.87 164.90 129.75 166.75&#10;  Q 125.78 173.34 122.69 179.24&#10;  A 0.13 0.13 0.0 0 1 122.45 179.16&#10;  Q 124.14 167.63 121.58 156.37&#10;  Q 118.33 142.16 116.07 134.77&#10;  Q 115.37 132.48 114.44 130.89&#10;  A 0.44 0.43 48.6 0 0 113.72 130.84&#10;  Q 106.95 139.65 101.22 148.23&#10;  C 93.37 159.98 90.39 172.78 101.18 183.89&#10;  Q 104.28 187.08 109.50 190.82&#10;  Q 113.49 193.68 116.18 190.22&#10;  Q 119.26 186.25 120.23 183.97&#10;  A 0.24 0.24 0.0 0 1 120.69 184.09&#10;  Q 120.69 184.12 120.32 184.70&#10;  Q 119.41 186.13 118.94 187.32&#10;  Q 114.37 198.81 108.75 215.21&#10;  Q 107.30 219.45 106.19 224.07&#10;  Q 105.47 227.08 105.37 227.86&#10;  C 104.97 231.32 104.09 234.14 103.69 237.47&#10;  Q 101.07 259.19 100.80 271.52&#10;  Q 100.61 280.02 102.36 289.38&#10;  Q 104.65 301.60 104.77 302.74&#10;  Q 105.15 306.31 106.40 308.65&#10;  Q 106.93 309.64 108.16 314.46&#10;  Q 109.04 317.90 111.33 322.87&#10;  Q 120.57 342.99 131.71 357.06&#10;  Q 139.63 367.06 155.16 381.34&#10;  Q 155.60 381.74 159.08 384.05&#10;  A 0.03 0.02 38.0 0 1 159.09 384.09&#10;  Q 159.08 384.11 159.06 384.12&#10;  A 0.12 0.03 25.5 0 1 158.95 384.10&#10;  Q 145.67 378.59 136.45 377.15&#10;  Q 127.25 375.72 111.87 374.13&#10;  Q 107.53 373.68 103.91 374.10&#10;  A 0.90 0.90 0.0 0 0 103.18 375.34&#10;  C 109.37 389.91 119.99 399.32 135.58 402.12&#10;  Q 145.58 403.92 147.50 404.05&#10;  C 156.40 404.64 167.41 405.13 174.90 402.16&#10;  A 0.61 0.61 0.0 0 0 175.24 401.34&#10;  Q 172.27 394.69 166.45 389.81&#10;  Q 166.10 389.52 165.96 389.32&#10;  A 0.21 0.21 0.0 0 1 166.20 389.01&#10;  Q 166.21 389.02 169.10 391.24&#10;  Q 170.70 392.48 171.97 393.20&#10;  C 179.34 397.38 187.63 402.78 195.66 407.19&#10;  Q 213.20 416.81 232.20 424.25&#10;  C 239.08 426.94 244.71 430.23 249.67 434.16&#10;  A 0.71 0.71 0.0 0 1 249.63 435.30&#10;  Q 247.77 436.54 245.63 437.38&#10;  Q 240.14 439.54 208.38 451.85&#10;  Q 206.86 452.44 206.13 453.32&#10;  A 1.24 1.24 0.0 0 0 206.13 454.90&#10;  Q 211.03 460.78 217.94 464.85&#10;  C 221.64 467.03 225.25 466.85 228.79 466.83&#10;  Q 230.33 466.82 234.06 464.57&#10;  Q 251.44 454.11 260.86 446.09&#10;  C 262.38 444.80 264.30 444.05 266.01 445.30&#10;  Q 279.78 455.38 285.64 459.36&#10;  Q 285.65 459.37 296.83 465.99&#10;  A 5.29 5.25 -26.0 0 0 298.95 466.71&#10;  Q 304.34 467.36 307.76 465.98&#10;  Q 314.99 463.08 321.49 455.52&#10;  Q 322.55 454.29 321.98 453.30&#10;  Q 321.57 452.57 320.00 451.93&#10;  Q 308.70 447.34 284.57 438.19&#10;  C 282.67 437.46 280.64 436.21 278.60 435.16&#10;  A 0.60 0.60 0.0 0 1 278.51 434.14&#10;  C 283.43 430.45 289.43 426.81 295.27 424.45&#10;  C 298.28 423.23 302.74 421.68 307.08 419.57&#10;  C 310.36 417.98 319.30 414.41 325.35 411.08&#10;  Q 327.27 410.03 331.55 407.74&#10;  Q 346.22 399.90 362.99 388.18&#10;  A 0.05 0.02 -10.7 0 1 363.06 388.20&#10;  Q 363.02 388.24 363.00 388.27&#10;  A 0.32 0.02 -60.8 0 1 362.85 388.50&#10;  Q 359.23 391.89 355.81 395.70&#10;  A 0.96 0.72 -18.6 0 0 355.68 395.89&#10;  L 352.97 401.15&#10;  A 0.64 0.64 0.0 0 0 353.34 402.05&#10;  Q 359.22 403.90 365.50 404.28&#10;  Q 379.15 405.11 393.21 402.15&#10;  Q 416.14 397.32 424.81 375.18&#10;  A 0.73 0.73 0.0 0 0 424.26 374.19&#10;  C 419.53 373.31 413.08 374.56 402.50 375.66&#10;  C 390.48 376.91 380.11 379.28 370.26 383.52&#10;  A 0.12 0.12 0.0 0 1 370.15 383.31&#10;  C 377.48 378.13 384.36 370.77 391.81 362.49&#10;  C 396.63 357.11 401.52 350.16 404.84 345.10&#10;  Q 410.26 336.81 415.17 325.77&#10;  Q 416.53 322.71 417.21 321.44&#10;  C 419.27 317.64 419.79 313.86 421.11 310.33&#10;  Q 422.26 307.25 423.07 303.59&#10;  C 425.45 292.89 427.42 282.01 427.17 271.75&#10;  C 427.04 266.79 426.79 254.12 425.35 245.60&#10;  Q 424.62 241.26 424.17 236.78&#10;  Q 423.67 231.67 420.95 219.98&#10;  Q 420.08 216.20 409.37 188.04&#10;  A 0.79 0.79 0.0 0 1 410.80 187.36&#10;  Z&#10;  M 86.79 179.83&#10;  Q 85.41 181.74 84.22 184.27&#10;  C 78.79 195.86 72.90 212.66 82.55 223.53&#10;  Q 88.44 230.18 97.11 233.47&#10;  A 2.32 2.31 -63.6 0 0 99.91 232.52&#10;  Q 103.86 226.08 103.94 218.74&#10;  C 104.03 210.59 103.65 206.05 100.63 200.08&#10;  Q 95.30 189.54 87.32 179.81&#10;  A 0.34 0.34 0.0 0 0 86.79 179.83&#10;  Z&#10;  M 441.25 179.92&#10;  A 0.34 0.33 -42.8 0 0 440.72 179.90&#10;  Q 432.78 189.63 427.47 200.17&#10;  C 424.47 206.13 424.10 210.67 424.20 218.80&#10;  Q 424.30 226.13 428.26 232.55&#10;  A 2.31 2.30 63.5 0 0 431.05 233.50&#10;  Q 439.70 230.20 445.57 223.54&#10;  C 455.19 212.67 449.27 195.91 443.83 184.35&#10;  Q 442.63 181.82 441.25 179.92&#10;  Z&#10;  M 252.14 248.00&#10;  C 252.14 263.46 252.58 273.03 251.72 280.08&#10;  A 1.25 1.24 -86.8 0 1 250.50 281.18&#10;  Q 236.70 281.32 205.75 281.31&#10;  Q 203.00 281.31 201.59 281.91&#10;  A 1.41 1.40 78.7 0 0 200.73 283.21&#10;  L 200.73 307.88&#10;  A 1.28 1.26 2.5 0 0 201.90 309.14&#10;  Q 205.44 309.43 208.75 309.45&#10;  Q 221.00 309.51 264.06 309.51&#10;  Q 307.13 309.51 319.38 309.45&#10;  Q 322.69 309.44 326.23 309.15&#10;  A 1.28 1.26 -2.5 0 0 327.40 307.89&#10;  L 327.40 283.22&#10;  A 1.41 1.40 -78.7 0 0 326.54 281.92&#10;  Q 325.13 281.32 322.38 281.32&#10;  Q 291.43 281.32 277.63 281.18&#10;  A 1.25 1.24 86.8 0 1 276.41 280.09&#10;  C 275.56 273.03 276.00 263.46 276.00 248.00&#10;  C 276.00 232.54 275.56 222.97 276.41 215.91&#10;  A 1.25 1.24 -86.8 0 1 277.64 214.82&#10;  Q 291.44 214.68 322.39 214.69&#10;  Q 325.14 214.69 326.55 214.09&#10;  A 1.41 1.40 78.7 0 0 327.41 212.79&#10;  L 327.41 188.12&#10;  A 1.28 1.26 2.5 0 0 326.24 186.86&#10;  Q 322.70 186.57 319.39 186.55&#10;  Q 307.14 186.49 264.07 186.49&#10;  Q 221.01 186.48 208.76 186.54&#10;  Q 205.45 186.56 201.91 186.85&#10;  A 1.28 1.26 -2.5 0 0 200.74 188.11&#10;  L 200.74 212.78&#10;  A 1.41 1.40 -78.7 0 0 201.60 214.08&#10;  Q 203.01 214.68 205.76 214.68&#10;  Q 236.71 214.67 250.51 214.81&#10;  A 1.25 1.24 86.8 0 1 251.73 215.91&#10;  C 252.58 222.97 252.14 232.54 252.14 248.00&#10;  Z&#10;  M 153.40 195.63&#10;  A 1.40 1.39 79.2 0 0 151.60 194.40&#10;  Q 136.27 199.06 124.56 208.77&#10;  C 116.44 215.50 109.67 226.23 109.78 237.72&#10;  A 1.26 1.25 82.1 0 0 111.36 238.92&#10;  Q 120.68 236.47 128.78 232.06&#10;  Q 149.77 220.62 153.26 197.23&#10;  Q 153.44 196.03 153.40 195.63&#10;  Z&#10;  M 374.81 195.69&#10;  Q 374.77 196.09 374.94 197.29&#10;  Q 378.38 220.59 399.27 232.01&#10;  Q 407.33 236.42 416.61 238.87&#10;  A 1.25 1.25 0.0 0 0 418.19 237.68&#10;  C 418.31 226.23 411.59 215.54 403.51 208.82&#10;  Q 391.86 199.13 376.60 194.47&#10;  A 1.40 1.39 -79.1 0 0 374.81 195.69&#10;  Z&#10;  M 96.39 277.22&#10;  Q 96.64 276.66 96.70 275.23&#10;  C 96.98 268.08 97.44 262.62 95.66 256.07&#10;  Q 90.44 236.90 73.50 225.25&#10;  Q 71.98 224.20 70.48 223.78&#10;  A 1.40 1.39 -70.7 0 0 68.82 224.58&#10;  C 63.24 237.64 64.78 251.66 74.16 262.57&#10;  Q 82.53 272.31 94.28 277.98&#10;  A 1.57 1.57 0.0 0 0 96.39 277.22&#10;  Z&#10;  M 431.82 277.22&#10;  A 1.57 1.57 0.0 0 0 433.93 277.98&#10;  Q 445.66 272.30 454.02 262.56&#10;  C 463.38 251.64 464.90 237.63 459.31 224.58&#10;  A 1.40 1.39 70.6 0 0 457.65 223.78&#10;  Q 456.15 224.20 454.63 225.26&#10;  Q 437.72 236.92 432.52 256.08&#10;  C 430.75 262.63 431.22 268.09 431.50 275.24&#10;  Q 431.57 276.66 431.82 277.22&#10;  Z&#10;  M 141.12 232.86&#10;  A 0.27 0.27 0.0 0 0 140.75 232.64&#10;  C 128.61 237.49 114.94 247.25 110.18 259.21&#10;  Q 106.60 268.22 109.02 278.94&#10;  A 1.94 1.93 71.3 0 0 111.71 280.27&#10;  Q 134.09 270.10 140.23 247.00&#10;  C 141.55 242.04 141.72 237.57 141.12 232.86&#10;  Z&#10;  M 386.97 232.86&#10;  C 386.37 237.56 386.54 242.01 387.86 246.95&#10;  Q 393.99 269.97 416.30 280.10&#10;  A 1.93 1.93 0.0 0 0 418.98 278.77&#10;  Q 421.38 268.09 417.81 259.11&#10;  C 413.06 247.19 399.44 237.47 387.34 232.64&#10;  A 0.27 0.27 0.0 0 0 386.97 232.86&#10;  Z&#10;  M 382.69 267.15&#10;  A 0.45 0.45 0.0 0 0 382.03 267.37&#10;  Q 380.45 271.33 380.06 275.20&#10;  C 377.89 296.56 389.58 312.34 408.07 321.16&#10;  A 1.69 1.69 0.0 0 0 410.10 320.72&#10;  Q 411.46 319.10 412.08 316.57&#10;  C 416.53 298.40 402.07 284.06 390.05 272.82&#10;  Q 386.57 269.57 382.69 267.15&#10;  Z&#10;  M 145.35 267.25&#10;  Q 141.48 269.66 138.00 272.91&#10;  C 126.01 284.12 111.58 298.43 116.02 316.56&#10;  Q 116.64 319.09 118.00 320.70&#10;  A 1.69 1.68 -32.6 0 0 120.03 321.14&#10;  C 138.47 312.34 150.14 296.59 147.97 275.28&#10;  Q 147.58 271.42 146.01 267.47&#10;  A 0.45 0.45 0.0 0 0 145.35 267.25&#10;  Z&#10;  M 65.44 270.09&#10;  A 0.61 0.60 13.9 0 0 64.62 270.58&#10;  Q 63.51 279.62 65.88 289.76&#10;  C 70.47 309.43 87.00 320.76 105.99 324.77&#10;  A 1.92 1.80 -42.4 0 0 106.68 324.78&#10;  Q 108.85 324.44 108.67 322.25&#10;  Q 107.35 306.65 96.80 295.24&#10;  Q 88.63 286.42 81.95 281.31&#10;  Q 71.55 273.35 69.52 272.20&#10;  Q 66.50 270.50 65.44 270.09&#10;  Z&#10;  M 462.59 270.29&#10;  Q 461.54 270.70 458.52 272.39&#10;  Q 456.49 273.53 446.10 281.45&#10;  Q 439.42 286.53 431.25 295.31&#10;  Q 420.70 306.67 419.35 322.23&#10;  Q 419.17 324.42 421.33 324.76&#10;  A 1.91 1.80 42.5 0 0 422.02 324.75&#10;  C 440.97 320.79 457.49 309.53 462.11 289.91&#10;  Q 464.50 279.80 463.41 270.78&#10;  A 0.61 0.60 -13.8 0 0 462.59 270.29&#10;  Z&#10;  M 397.57 365.43&#10;  A 0.65 0.64 -83.8 0 0 398.16 366.17&#10;  C 403.97 366.63 409.00 365.41 415.42 364.39&#10;  Q 418.73 363.86 424.31 361.77&#10;  Q 439.51 356.06 447.35 342.93&#10;  Q 452.83 333.77 454.85 323.16&#10;  A 0.17 0.17 0.0 0 0 454.65 322.96&#10;  Q 450.77 323.68 446.62 325.22&#10;  Q 436.89 328.83 425.13 335.46&#10;  C 414.39 341.51 399.38 352.86 397.57 365.43&#10;  Z&#10;  M 130.54 365.39&#10;  C 128.73 352.79 113.68 341.42 102.92 335.37&#10;  Q 91.13 328.73 81.38 325.11&#10;  Q 77.22 323.57 73.33 322.85&#10;  A 0.17 0.17 0.0 0 0 73.13 323.05&#10;  Q 75.16 333.68 80.66 342.86&#10;  Q 88.52 356.01 103.75 361.73&#10;  Q 109.34 363.82 112.66 364.35&#10;  C 119.09 365.37 124.13 366.59 129.95 366.13&#10;  A 0.65 0.64 83.8 0 0 130.54 365.39&#10;  Z&#10;  M 343.49 394.84&#10;  Q 343.81 394.50 344.58 394.14&#10;  Q 358.19 387.84 363.55 373.54&#10;  C 366.80 364.86 364.71 352.36 361.31 344.45&#10;  Q 361.03 343.79 360.53 343.28&#10;  A 1.39 1.39 0.0 0 0 358.56 343.27&#10;  Q 353.69 348.17 348.56 353.28&#10;  Q 343.65 358.17 339.12 368.13&#10;  A 6.18 6.14 -29.2 0 0 338.63 369.84&#10;  C 337.59 377.74 337.23 386.90 341.25 394.54&#10;  A 1.39 1.39 0.0 0 0 343.49 394.84&#10;  Z&#10;  M 237.57 416.05&#10;  Q 237.27 408.75 234.92 402.14&#10;  C 231.11 391.45 221.40 382.07 211.66 375.66&#10;  C 209.11 373.99 206.28 371.97 203.09 370.84&#10;  A 1.03 1.03 0.0 0 0 201.83 371.34&#10;  Q 200.77 373.39 200.59 375.93&#10;  C 200.23 380.90 199.93 387.59 201.24 392.18&#10;  C 205.03 405.59 214.52 412.25 227.52 415.75&#10;  Q 232.04 416.96 236.87 416.80&#10;  A 0.72 0.72 0.0 0 0 237.57 416.05&#10;  Z&#10;  M 290.47 416.13&#10;  A 0.72 0.72 0.0 0 0 291.17 416.88&#10;  Q 296.00 417.05 300.53 415.84&#10;  C 313.54 412.34 323.04 405.68 326.84 392.27&#10;  C 328.15 387.67 327.86 380.98 327.50 376.00&#10;  Q 327.32 373.46 326.26 371.41&#10;  A 1.03 1.03 0.0 0 0 325.00 370.91&#10;  C 321.81 372.04 318.97 374.06 316.42 375.73&#10;  C 306.67 382.14 296.95 391.52 293.13 402.21&#10;  Q 290.77 408.83 290.47 416.13&#10;  Z&#10;  M 148.25 420.68&#10;  A 0.30 0.30 0.0 0 0 148.28 421.20&#10;  Q 164.36 428.84 181.72 432.37&#10;  Q 188.65 433.78 195.87 433.77&#10;  Q 208.53 433.76 210.11 433.62&#10;  Q 220.16 432.76 229.50 428.11&#10;  A 1.33 1.33 0.0 0 0 229.74 425.89&#10;  Q 218.71 416.98 204.92 414.74&#10;  Q 192.37 412.70 181.02 413.74&#10;  Q 165.62 415.17 151.49 419.17&#10;  Q 149.81 419.65 148.25 420.68&#10;  Z&#10;  M 379.71 420.71&#10;  Q 378.16 419.68 376.48 419.20&#10;  Q 362.38 415.20 347.01 413.76&#10;  Q 335.69 412.71 323.16 414.73&#10;  Q 309.39 416.96 298.38 425.84&#10;  A 1.33 1.32 -51.2 0 0 298.61 428.06&#10;  Q 307.93 432.70 317.96 433.57&#10;  Q 319.54 433.71 332.17 433.73&#10;  Q 339.38 433.75 346.30 432.35&#10;  Q 363.63 428.84 379.68 421.23&#10;  A 0.30 0.30 0.0 0 0 379.71 420.71&#10;  Z"/>
<path fill="#ffff00" d="&#10;  M 273.29 83.16&#10;  L 295.33 84.19&#10;  A 0.78 0.78 0.0 0 1 295.78 85.58&#10;  L 278.56 99.36&#10;  A 0.78 0.78 0.0 0 0 278.29 100.18&#10;  L 284.12 121.46&#10;  A 0.78 0.78 0.0 0 1 282.94 122.31&#10;  L 264.51 110.19&#10;  A 0.78 0.78 0.0 0 0 263.65 110.19&#10;  L 245.22 122.31&#10;  A 0.78 0.78 0.0 0 1 244.04 121.46&#10;  L 249.87 100.18&#10;  A 0.78 0.78 0.0 0 0 249.60 99.36&#10;  L 232.38 85.58&#10;  A 0.78 0.78 0.0 0 1 232.83 84.19&#10;  L 254.87 83.16&#10;  A 0.78 0.78 0.0 0 0 255.56 82.66&#10;  L 263.35 62.01&#10;  A 0.78 0.78 0.0 0 1 264.81 62.01&#10;  L 272.60 82.66&#10;  A 0.78 0.78 0.0 0 0 273.29 83.16&#10;  Z"/>
<path fill="#ffff00" d="&#10;  M 409.37 188.04&#10;  Q 420.08 216.20 420.95 219.98&#10;  Q 423.67 231.67 424.17 236.78&#10;  Q 424.62 241.26 425.35 245.60&#10;  C 426.79 254.12 427.04 266.79 427.17 271.75&#10;  C 427.42 282.01 425.45 292.89 423.07 303.59&#10;  Q 422.26 307.25 421.11 310.33&#10;  C 419.79 313.86 419.27 317.64 417.21 321.44&#10;  Q 416.53 322.71 415.17 325.77&#10;  Q 410.26 336.81 404.84 345.10&#10;  C 401.52 350.16 396.63 357.11 391.81 362.49&#10;  C 384.36 370.77 377.48 378.13 370.15 383.31&#10;  A 0.12 0.12 0.0 0 0 370.26 383.52&#10;  C 380.11 379.28 390.48 376.91 402.50 375.66&#10;  C 413.08 374.56 419.53 373.31 424.26 374.19&#10;  A 0.73 0.73 0.0 0 1 424.81 375.18&#10;  Q 416.14 397.32 393.21 402.15&#10;  Q 379.15 405.11 365.50 404.28&#10;  Q 359.22 403.90 353.34 402.05&#10;  A 0.64 0.64 0.0 0 1 352.97 401.15&#10;  L 355.68 395.89&#10;  A 0.96 0.72 -18.6 0 1 355.81 395.70&#10;  Q 359.23 391.89 362.85 388.50&#10;  A 0.32 0.02 -60.8 0 0 363.00 388.27&#10;  Q 363.02 388.24 363.06 388.20&#10;  A 0.05 0.02 -10.7 0 0 362.99 388.18&#10;  Q 346.22 399.90 331.55 407.74&#10;  Q 327.27 410.03 325.35 411.08&#10;  C 319.30 414.41 310.36 417.98 307.08 419.57&#10;  C 302.74 421.68 298.28 423.23 295.27 424.45&#10;  C 289.43 426.81 283.43 430.45 278.51 434.14&#10;  A 0.60 0.60 0.0 0 0 278.60 435.16&#10;  C 280.64 436.21 282.67 437.46 284.57 438.19&#10;  Q 308.70 447.34 320.00 451.93&#10;  Q 321.57 452.57 321.98 453.30&#10;  Q 322.55 454.29 321.49 455.52&#10;  Q 314.99 463.08 307.76 465.98&#10;  Q 304.34 467.36 298.95 466.71&#10;  A 5.29 5.25 -26.0 0 1 296.83 465.99&#10;  Q 285.65 459.37 285.64 459.36&#10;  Q 279.78 455.38 266.01 445.30&#10;  C 264.30 444.05 262.38 444.80 260.86 446.09&#10;  Q 251.44 454.11 234.06 464.57&#10;  Q 230.33 466.82 228.79 466.83&#10;  C 225.25 466.85 221.64 467.03 217.94 464.85&#10;  Q 211.03 460.78 206.13 454.90&#10;  A 1.24 1.24 0.0 0 1 206.13 453.32&#10;  Q 206.86 452.44 208.38 451.85&#10;  Q 240.14 439.54 245.63 437.38&#10;  Q 247.77 436.54 249.63 435.30&#10;  A 0.71 0.71 0.0 0 0 249.67 434.16&#10;  C 244.71 430.23 239.08 426.94 232.20 424.25&#10;  Q 213.20 416.81 195.66 407.19&#10;  C 187.63 402.78 179.34 397.38 171.97 393.20&#10;  Q 170.70 392.48 169.10 391.24&#10;  Q 166.21 389.02 166.20 389.01&#10;  A 0.21 0.21 0.0 0 0 165.96 389.32&#10;  Q 166.10 389.52 166.45 389.81&#10;  Q 172.27 394.69 175.24 401.34&#10;  A 0.61 0.61 0.0 0 1 174.90 402.16&#10;  C 167.41 405.13 156.40 404.64 147.50 404.05&#10;  Q 145.58 403.92 135.58 402.12&#10;  C 119.99 399.32 109.37 389.91 103.18 375.34&#10;  A 0.90 0.90 0.0 0 1 103.91 374.10&#10;  Q 107.53 373.68 111.87 374.13&#10;  Q 127.25 375.72 136.45 377.15&#10;  Q 145.67 378.59 158.95 384.10&#10;  A 0.12 0.03 25.5 0 0 159.06 384.12&#10;  Q 159.08 384.11 159.09 384.09&#10;  A 0.03 0.02 38.0 0 0 159.08 384.05&#10;  Q 155.60 381.74 155.16 381.34&#10;  Q 139.63 367.06 131.71 357.06&#10;  Q 120.57 342.99 111.33 322.87&#10;  Q 109.04 317.90 108.16 314.46&#10;  Q 106.93 309.64 106.40 308.65&#10;  Q 105.15 306.31 104.77 302.74&#10;  Q 104.65 301.60 102.36 289.38&#10;  Q 100.61 280.02 100.80 271.52&#10;  Q 101.07 259.19 103.69 237.47&#10;  C 104.09 234.14 104.97 231.32 105.37 227.86&#10;  Q 105.47 227.08 106.19 224.07&#10;  Q 107.30 219.45 108.75 215.21&#10;  Q 114.37 198.81 118.94 187.32&#10;  Q 119.41 186.13 120.32 184.70&#10;  Q 120.69 184.12 120.69 184.09&#10;  A 0.24 0.24 0.0 0 0 120.23 183.97&#10;  Q 119.26 186.25 116.18 190.22&#10;  Q 113.49 193.68 109.50 190.82&#10;  Q 104.28 187.08 101.18 183.89&#10;  C 90.39 172.78 93.37 159.98 101.22 148.23&#10;  Q 106.95 139.65 113.72 130.84&#10;  A 0.44 0.43 48.6 0 1 114.44 130.89&#10;  Q 115.37 132.48 116.07 134.77&#10;  Q 118.33 142.16 121.58 156.37&#10;  Q 124.14 167.63 122.45 179.16&#10;  A 0.13 0.13 0.0 0 0 122.69 179.24&#10;  Q 125.78 173.34 129.75 166.75&#10;  Q 130.87 164.90 131.51 162.64&#10;  A 4.00 3.77 53.9 0 0 131.65 161.53&#10;  C 131.57 155.48 131.25 150.98 131.87 146.83&#10;  Q 134.42 129.85 151.79 124.26&#10;  Q 153.49 123.71 160.57 122.04&#10;  A 9.43 9.31 16.1 0 0 164.88 119.70&#10;  Q 174.19 110.81 184.84 102.59&#10;  Q 186.31 101.45 189.33 99.86&#10;  A 0.43 0.43 0.0 0 1 189.93 100.39&#10;  Q 189.07 102.68 186.35 105.13&#10;  Q 175.80 114.63 168.93 121.41&#10;  Q 167.18 123.13 167.23 125.51&#10;  Q 167.33 130.52 166.34 135.98&#10;  C 163.51 151.65 152.11 157.70 138.06 161.87&#10;  A 4.65 4.62 -81.0 0 0 135.55 163.71&#10;  Q 134.13 165.80 131.66 170.68&#10;  Q 131.33 171.34 123.64 187.89&#10;  A 0.15 0.14 -64.4 0 0 123.70 188.08&#10;  L 123.71 188.08&#10;  A 0.11 0.10 -62.3 0 0 123.85 188.03&#10;  Q 128.51 178.98 136.35 173.12&#10;  C 147.07 165.10 158.76 161.38 171.94 160.16&#10;  A 0.79 0.78 -89.1 0 1 172.78 161.04&#10;  C 172.36 164.29 170.64 167.34 168.93 170.39&#10;  C 160.28 185.83 142.49 192.65 126.01 195.76&#10;  Q 123.47 196.25 121.11 195.49&#10;  A 0.91 0.90 20.3 0 0 119.99 196.00&#10;  Q 114.43 209.25 111.63 220.17&#10;  C 110.40 224.99 109.38 232.32 108.06 237.99&#10;  Q 107.31 241.21 107.07 245.19&#10;  Q 106.13 260.96 106.36 265.13&#10;  Q 106.94 275.79 107.10 280.24&#10;  C 107.39 288.58 109.01 297.47 110.73 305.08&#10;  Q 114.15 320.23 121.43 334.23&#10;  C 124.96 341.02 129.38 346.40 133.72 352.86&#10;  A 0.34 0.33 57.1 0 0 134.16 352.96&#10;  L 134.40 352.82&#10;  A 0.12 0.12 0.0 0 0 134.44 352.65&#10;  C 125.56 339.15 129.67 326.17 139.88 315.39&#10;  Q 145.67 309.27 152.08 303.96&#10;  A 0.81 0.80 -33.0 0 1 153.31 304.22&#10;  Q 158.38 314.27 158.73 325.80&#10;  C 159.07 337.28 154.40 348.64 147.62 357.87&#10;  Q 145.99 360.07 143.27 362.04&#10;  A 0.60 0.59 -32.3 0 0 143.09 362.80&#10;  Q 143.92 364.34 144.91 365.32&#10;  Q 157.39 377.61 174.12 389.12&#10;  Q 176.94 391.05 178.02 391.55&#10;  A 0.29 0.29 0.0 0 0 178.39 391.43&#10;  L 178.39 391.42&#10;  A 0.24 0.24 0.0 0 0 178.31 391.10&#10;  Q 174.69 388.68 171.77 385.47&#10;  C 160.80 373.42 162.15 360.44 166.00 345.77&#10;  Q 166.52 343.80 167.71 343.21&#10;  A 1.07 1.07 0.0 0 1 168.67 343.21&#10;  Q 170.37 344.06 171.47 345.09&#10;  C 178.95 352.15 184.11 357.84 188.08 366.18&#10;  C 190.51 371.28 190.34 377.59 190.06 383.60&#10;  C 189.87 387.52 187.80 393.06 185.94 396.08&#10;  A 0.58 0.57 32.4 0 0 186.12 396.87&#10;  Q 193.28 401.48 201.11 405.35&#10;  Q 215.50 412.47 227.43 417.25&#10;  C 233.02 419.49 237.50 421.98 243.12 423.87&#10;  Q 246.13 424.88 248.47 424.90&#10;  A 0.96 0.95 -14.0 0 0 249.32 423.49&#10;  Q 241.85 409.66 238.53 395.28&#10;  A 8.27 8.06 39.1 0 1 238.31 393.40&#10;  Q 238.28 386.68 238.17 380.76&#10;  Q 238.13 378.49 239.23 375.31&#10;  C 240.87 370.54 242.27 366.87 247.99 366.58&#10;  Q 251.24 366.41 253.88 367.19&#10;  A 2.79 2.75 71.9 0 1 254.81 367.67&#10;  Q 258.20 370.32 259.72 374.79&#10;  C 260.89 378.23 262.05 382.72 262.44 386.81&#10;  Q 263.50 398.04 263.98 409.76&#10;  A 0.24 0.22 16.2 0 0 264.10 409.96&#10;  L 264.50 410.19&#10;  A 0.11 0.11 0.0 0 0 264.66 410.10&#10;  L 265.67 387.27&#10;  A 6.58 6.51 58.1 0 1 266.19 384.97&#10;  Q 267.47 381.95 267.75 379.22&#10;  C 268.22 374.72 270.56 367.59 275.81 366.84&#10;  C 279.85 366.27 283.77 366.14 286.18 369.59&#10;  C 290.04 375.13 289.91 380.95 289.77 387.65&#10;  Q 289.62 395.34 289.09 397.55&#10;  Q 285.82 411.03 278.79 423.51&#10;  A 0.98 0.97 -78.7 0 0 279.75 424.96&#10;  Q 284.05 424.48 287.29 423.04&#10;  C 305.04 415.16 325.33 407.68 339.95 398.10&#10;  C 341.47 397.10 342.65 395.42 344.19 395.16&#10;  A 1.99 1.95 24.5 0 0 344.88 394.91&#10;  Q 362.61 384.18 379.73 368.73&#10;  Q 381.93 366.74 385.17 362.93&#10;  A 0.53 0.52 -60.5 0 0 384.94 362.10&#10;  C 383.29 361.49 382.56 360.20 381.49 358.89&#10;  Q 373.03 348.55 370.48 336.21&#10;  C 368.14 324.86 370.09 314.26 374.84 304.05&#10;  A 0.65 0.64 -57.5 0 1 375.84 303.82&#10;  C 384.97 311.45 393.38 318.64 397.47 330.03&#10;  C 400.13 337.44 397.88 346.70 393.67 352.92&#10;  Q 391.46 356.17 387.29 360.68&#10;  A 0.21 0.20 44.0 0 0 387.30 360.96&#10;  L 387.31 360.96&#10;  A 0.16 0.15 43.6 0 0 387.52 360.96&#10;  Q 393.34 354.87 396.04 350.72&#10;  Q 397.54 348.40 403.38 339.65&#10;  Q 408.20 332.43 411.95 322.49&#10;  Q 418.29 305.69 420.31 288.53&#10;  Q 422.51 269.84 420.83 242.19&#10;  A 9.55 9.49 -55.8 0 0 420.38 239.79&#10;  Q 419.59 237.35 419.18 234.69&#10;  C 418.42 229.64 417.48 226.16 416.10 219.60&#10;  C 414.41 211.59 411.43 203.63 407.96 196.45&#10;  A 1.32 1.31 -18.4 0 0 406.53 195.74&#10;  C 402.46 196.53 398.23 194.89 393.26 193.71&#10;  Q 386.00 191.99 377.39 187.39&#10;  C 366.55 181.60 358.56 172.71 355.05 160.99&#10;  A 0.61 0.61 0.0 0 1 355.68 160.20&#10;  C 371.53 161.34 384.39 166.23 396.35 177.05&#10;  Q 401.18 181.43 403.61 187.80&#10;  A 0.16 0.15 63.5 0 0 403.83 187.88&#10;  L 404.13 187.71&#10;  A 0.04 0.04 0.0 0 0 404.14 187.65&#10;  Q 403.55 187.02 399.30 176.71&#10;  C 397.40 172.09 394.38 166.67 392.76 163.85&#10;  A 4.23 4.21 -8.2 0 0 390.07 161.85&#10;  C 379.57 159.35 367.53 152.86 363.52 142.12&#10;  Q 360.44 133.90 360.85 125.51&#10;  A 5.19 5.19 0.0 0 0 359.29 121.55&#10;  Q 350.69 113.13 343.05 106.46&#10;  Q 340.00 103.80 338.08 100.82&#10;  A 0.64 0.64 0.0 0 1 338.63 99.83&#10;  Q 339.07 99.84 339.89 100.35&#10;  C 348.63 105.84 356.07 113.09 363.87 120.38&#10;  C 364.78 121.23 367.32 122.14 368.98 122.48&#10;  C 381.83 125.17 392.05 129.96 395.52 143.31&#10;  C 396.94 148.76 396.60 155.14 396.30 161.24&#10;  Q 396.20 163.11 397.36 165.15&#10;  Q 401.80 172.96 406.01 180.32&#10;  A 0.15 0.14 61.5 0 0 406.20 180.38&#10;  L 406.21 180.38&#10;  A 0.15 0.14 -28.5 0 0 406.27 180.19&#10;  Q 405.19 177.62 405.12 175.32&#10;  C 404.93 169.13 405.03 163.00 406.63 155.89&#10;  Q 409.45 143.32 413.22 131.25&#10;  A 0.60 0.59 -70.6 0 1 414.01 130.87&#10;  Q 414.47 131.06 415.12 131.89&#10;  Q 424.97 144.38 430.74 155.03&#10;  C 438.19 168.78 432.90 179.93 421.42 188.74&#10;  C 419.69 190.07 418.06 191.42 416.06 192.09&#10;  A 2.76 2.76 0.0 0 1 412.81 190.85&#10;  L 410.80 187.36&#10;  A 0.79 0.79 0.0 0 0 409.37 188.04&#10;  Z&#10;  M 273.91 421.62&#10;  Q 275.38 421.12 276.46 419.19&#10;  Q 285.31 403.44 286.26 385.51&#10;  C 286.52 380.60 284.89 368.51 276.62 370.48&#10;  Q 273.20 371.29 272.07 373.36&#10;  Q 269.18 378.61 269.24 385.75&#10;  C 269.28 390.76 269.20 395.07 269.82 399.41&#10;  C 270.71 405.71 270.86 413.62 272.57 420.88&#10;  A 1.03 1.03 0.0 0 0 273.91 421.62&#10;  Z&#10;  M 254.16 421.56&#10;  A 1.03 1.03 0.0 0 0 255.50 420.82&#10;  C 257.18 413.58 257.30 405.70 258.17 399.42&#10;  C 258.77 395.09 258.68 390.79 258.70 385.80&#10;  Q 258.74 378.68 255.84 373.46&#10;  Q 254.71 371.40 251.30 370.61&#10;  C 243.05 368.67 241.47 380.72 241.74 385.61&#10;  Q 242.74 403.48 251.61 419.15&#10;  Q 252.70 421.07 254.16 421.56&#10;  Z"/>
<path fill="#ffff00" d="&#10;  M 86.79 179.83&#10;  A 0.34 0.34 0.0 0 1 87.32 179.81&#10;  Q 95.30 189.54 100.63 200.08&#10;  C 103.65 206.05 104.03 210.59 103.94 218.74&#10;  Q 103.86 226.08 99.91 232.52&#10;  A 2.32 2.31 -63.6 0 1 97.11 233.47&#10;  Q 88.44 230.18 82.55 223.53&#10;  C 72.90 212.66 78.79 195.86 84.22 184.27&#10;  Q 85.41 181.74 86.79 179.83&#10;  Z"/>
<path fill="#ffff00" d="&#10;  M 441.25 179.92&#10;  Q 442.63 181.82 443.83 184.35&#10;  C 449.27 195.91 455.19 212.67 445.57 223.54&#10;  Q 439.70 230.20 431.05 233.50&#10;  A 2.31 2.30 63.5 0 1 428.26 232.55&#10;  Q 424.30 226.13 424.20 218.80&#10;  C 424.10 210.67 424.47 206.13 427.47 200.17&#10;  Q 432.78 189.63 440.72 179.90&#10;  A 0.34 0.33 -42.8 0 1 441.25 179.92&#10;  Z"/>
<path fill="#ffff00" d="&#10;  M 264.07 186.49&#10;  Q 307.14 186.49 319.39 186.55&#10;  Q 322.70 186.57 326.24 186.86&#10;  A 1.28 1.26 2.5 0 1 327.41 188.12&#10;  L 327.41 212.79&#10;  A 1.41 1.40 78.7 0 1 326.55 214.09&#10;  Q 325.14 214.69 322.39 214.69&#10;  Q 291.44 214.68 277.64 214.82&#10;  A 1.25 1.24 -86.8 0 0 276.41 215.91&#10;  C 275.56 222.97 276.00 232.54 276.00 248.00&#10;  C 276.00 263.46 275.56 273.03 276.41 280.09&#10;  A 1.25 1.24 86.8 0 0 277.63 281.18&#10;  Q 291.43 281.32 322.38 281.32&#10;  Q 325.13 281.32 326.54 281.92&#10;  A 1.41 1.40 -78.7 0 1 327.40 283.22&#10;  L 327.40 307.89&#10;  A 1.28 1.26 -2.5 0 1 326.23 309.15&#10;  Q 322.69 309.44 319.38 309.45&#10;  Q 307.13 309.51 264.06 309.51&#10;  Q 221.00 309.51 208.75 309.45&#10;  Q 205.44 309.43 201.90 309.14&#10;  A 1.28 1.26 2.5 0 1 200.73 307.88&#10;  L 200.73 283.21&#10;  A 1.41 1.40 78.7 0 1 201.59 281.91&#10;  Q 203.00 281.31 205.75 281.31&#10;  Q 236.70 281.32 250.50 281.18&#10;  A 1.25 1.24 -86.8 0 0 251.72 280.08&#10;  C 252.58 273.03 252.14 263.46 252.14 248.00&#10;  C 252.14 232.54 252.58 222.97 251.73 215.91&#10;  A 1.25 1.24 86.8 0 0 250.51 214.81&#10;  Q 236.71 214.67 205.76 214.68&#10;  Q 203.01 214.68 201.60 214.08&#10;  A 1.41 1.40 -78.7 0 1 200.74 212.78&#10;  L 200.74 188.11&#10;  A 1.28 1.26 -2.5 0 1 201.91 186.85&#10;  Q 205.45 186.56 208.76 186.54&#10;  Q 221.01 186.48 264.07 186.49&#10;  Z"/>
<path fill="#ffff00" d="&#10;  M 153.40 195.63&#10;  Q 153.44 196.03 153.26 197.23&#10;  Q 149.77 220.62 128.78 232.06&#10;  Q 120.68 236.47 111.36 238.92&#10;  A 1.26 1.25 82.1 0 1 109.78 237.72&#10;  C 109.67 226.23 116.44 215.50 124.56 208.77&#10;  Q 136.27 199.06 151.60 194.40&#10;  A 1.40 1.39 79.2 0 1 153.40 195.63&#10;  Z"/>
<path fill="#ffff00" d="&#10;  M 374.81 195.69&#10;  A 1.40 1.39 -79.1 0 1 376.60 194.47&#10;  Q 391.86 199.13 403.51 208.82&#10;  C 411.59 215.54 418.31 226.23 418.19 237.68&#10;  A 1.25 1.25 0.0 0 1 416.61 238.87&#10;  Q 407.33 236.42 399.27 232.01&#10;  Q 378.38 220.59 374.94 197.29&#10;  Q 374.77 196.09 374.81 195.69&#10;  Z"/>
<path fill="#ffff00" d="&#10;  M 96.39 277.22&#10;  A 1.57 1.57 0.0 0 1 94.28 277.98&#10;  Q 82.53 272.31 74.16 262.57&#10;  C 64.78 251.66 63.24 237.64 68.82 224.58&#10;  A 1.40 1.39 -70.7 0 1 70.48 223.78&#10;  Q 71.98 224.20 73.50 225.25&#10;  Q 90.44 236.90 95.66 256.07&#10;  C 97.44 262.62 96.98 268.08 96.70 275.23&#10;  Q 96.64 276.66 96.39 277.22&#10;  Z"/>
<path fill="#ffff00" d="&#10;  M 431.82 277.22&#10;  Q 431.57 276.66 431.50 275.24&#10;  C 431.22 268.09 430.75 262.63 432.52 256.08&#10;  Q 437.72 236.92 454.63 225.26&#10;  Q 456.15 224.20 457.65 223.78&#10;  A 1.40 1.39 70.6 0 1 459.31 224.58&#10;  C 464.90 237.63 463.38 251.64 454.02 262.56&#10;  Q 445.66 272.30 433.93 277.98&#10;  A 1.57 1.57 0.0 0 1 431.82 277.22&#10;  Z"/>
<path fill="#ffff00" d="&#10;  M 141.12 232.86&#10;  C 141.72 237.57 141.55 242.04 140.23 247.00&#10;  Q 134.09 270.10 111.71 280.27&#10;  A 1.94 1.93 71.3 0 1 109.02 278.94&#10;  Q 106.60 268.22 110.18 259.21&#10;  C 114.94 247.25 128.61 237.49 140.75 232.64&#10;  A 0.27 0.27 0.0 0 1 141.12 232.86&#10;  Z"/>
<path fill="#ffff00" d="&#10;  M 386.97 232.86&#10;  A 0.27 0.27 0.0 0 1 387.34 232.64&#10;  C 399.44 237.47 413.06 247.19 417.81 259.11&#10;  Q 421.38 268.09 418.98 278.77&#10;  A 1.93 1.93 0.0 0 1 416.30 280.10&#10;  Q 393.99 269.97 387.86 246.95&#10;  C 386.54 242.01 386.37 237.56 386.97 232.86&#10;  Z"/>
<path fill="#ffff00" d="&#10;  M 382.69 267.15&#10;  Q 386.57 269.57 390.05 272.82&#10;  C 402.07 284.06 416.53 298.40 412.08 316.57&#10;  Q 411.46 319.10 410.10 320.72&#10;  A 1.69 1.69 0.0 0 1 408.07 321.16&#10;  C 389.58 312.34 377.89 296.56 380.06 275.20&#10;  Q 380.45 271.33 382.03 267.37&#10;  A 0.45 0.45 0.0 0 1 382.69 267.15&#10;  Z"/>
<path fill="#ffff00" d="&#10;  M 145.35 267.25&#10;  A 0.45 0.45 0.0 0 1 146.01 267.47&#10;  Q 147.58 271.42 147.97 275.28&#10;  C 150.14 296.59 138.47 312.34 120.03 321.14&#10;  A 1.69 1.68 -32.6 0 1 118.00 320.70&#10;  Q 116.64 319.09 116.02 316.56&#10;  C 111.58 298.43 126.01 284.12 138.00 272.91&#10;  Q 141.48 269.66 145.35 267.25&#10;  Z"/>
<path fill="#ffff00" d="&#10;  M 65.44 270.09&#10;  Q 66.50 270.50 69.52 272.20&#10;  Q 71.55 273.35 81.95 281.31&#10;  Q 88.63 286.42 96.80 295.24&#10;  Q 107.35 306.65 108.67 322.25&#10;  Q 108.85 324.44 106.68 324.78&#10;  A 1.92 1.80 -42.4 0 1 105.99 324.77&#10;  C 87.00 320.76 70.47 309.43 65.88 289.76&#10;  Q 63.51 279.62 64.62 270.58&#10;  A 0.61 0.60 13.9 0 1 65.44 270.09&#10;  Z"/>
<path fill="#ffff00" d="&#10;  M 462.59 270.29&#10;  A 0.61 0.60 -13.8 0 1 463.41 270.78&#10;  Q 464.50 279.80 462.11 289.91&#10;  C 457.49 309.53 440.97 320.79 422.02 324.75&#10;  A 1.91 1.80 42.5 0 1 421.33 324.76&#10;  Q 419.17 324.42 419.35 322.23&#10;  Q 420.70 306.67 431.25 295.31&#10;  Q 439.42 286.53 446.10 281.45&#10;  Q 456.49 273.53 458.52 272.39&#10;  Q 461.54 270.70 462.59 270.29&#10;  Z"/>
<path fill="#ffff00" d="&#10;  M 397.57 365.43&#10;  C 399.38 352.86 414.39 341.51 425.13 335.46&#10;  Q 436.89 328.83 446.62 325.22&#10;  Q 450.77 323.68 454.65 322.96&#10;  A 0.17 0.17 0.0 0 1 454.85 323.16&#10;  Q 452.83 333.77 447.35 342.93&#10;  Q 439.51 356.06 424.31 361.77&#10;  Q 418.73 363.86 415.42 364.39&#10;  C 409.00 365.41 403.97 366.63 398.16 366.17&#10;  A 0.65 0.64 -83.8 0 1 397.57 365.43&#10;  Z"/>
<path fill="#ffff00" d="&#10;  M 129.95 366.13&#10;  C 124.13 366.59 119.09 365.37 112.66 364.35&#10;  Q 109.34 363.82 103.75 361.73&#10;  Q 88.52 356.01 80.66 342.86&#10;  Q 75.16 333.68 73.13 323.05&#10;  A 0.17 0.17 0.0 0 1 73.33 322.85&#10;  Q 77.22 323.57 81.38 325.11&#10;  Q 91.13 328.73 102.92 335.37&#10;  C 113.68 341.42 128.73 352.79 130.54 365.39&#10;  A 0.65 0.64 83.8 0 1 129.95 366.13&#10;  Z"/>
<path fill="#ffff00" d="&#10;  M 343.49 394.84&#10;  A 1.39 1.39 0.0 0 1 341.25 394.54&#10;  C 337.23 386.90 337.59 377.74 338.63 369.84&#10;  A 6.18 6.14 -29.2 0 1 339.12 368.13&#10;  Q 343.65 358.17 348.56 353.28&#10;  Q 353.69 348.17 358.56 343.27&#10;  A 1.39 1.39 0.0 0 1 360.53 343.28&#10;  Q 361.03 343.79 361.31 344.45&#10;  C 364.71 352.36 366.80 364.86 363.55 373.54&#10;  Q 358.19 387.84 344.58 394.14&#10;  Q 343.81 394.50 343.49 394.84&#10;  Z"/>
<path fill="#ff0000" d="&#10;  M 273.91 421.62&#10;  A 1.03 1.03 0.0 0 1 272.57 420.88&#10;  C 270.86 413.62 270.71 405.71 269.82 399.41&#10;  C 269.20 395.07 269.28 390.76 269.24 385.75&#10;  Q 269.18 378.61 272.07 373.36&#10;  Q 273.20 371.29 276.62 370.48&#10;  C 284.89 368.51 286.52 380.60 286.26 385.51&#10;  Q 285.31 403.44 276.46 419.19&#10;  Q 275.38 421.12 273.91 421.62&#10;  Z"/>
<path fill="#ff0000" d="&#10;  M 254.16 421.56&#10;  Q 252.70 421.07 251.61 419.15&#10;  Q 242.74 403.48 241.74 385.61&#10;  C 241.47 380.72 243.05 368.67 251.30 370.61&#10;  Q 254.71 371.40 255.84 373.46&#10;  Q 258.74 378.68 258.70 385.80&#10;  C 258.68 390.79 258.77 395.09 258.17 399.42&#10;  C 257.30 405.70 257.18 413.58 255.50 420.82&#10;  A 1.03 1.03 0.0 0 1 254.16 421.56&#10;  Z"/>
<path fill="#ffff00" d="&#10;  M 237.57 416.05&#10;  A 0.72 0.72 0.0 0 1 236.87 416.80&#10;  Q 232.04 416.96 227.52 415.75&#10;  C 214.52 412.25 205.03 405.59 201.24 392.18&#10;  C 199.93 387.59 200.23 380.90 200.59 375.93&#10;  Q 200.77 373.39 201.83 371.34&#10;  A 1.03 1.03 0.0 0 1 203.09 370.84&#10;  C 206.28 371.97 209.11 373.99 211.66 375.66&#10;  C 221.40 382.07 231.11 391.45 234.92 402.14&#10;  Q 237.27 408.75 237.57 416.05&#10;  Z"/>
<path fill="#ffff00" d="&#10;  M 290.47 416.13&#10;  Q 290.77 408.83 293.13 402.21&#10;  C 296.95 391.52 306.67 382.14 316.42 375.73&#10;  C 318.97 374.06 321.81 372.04 325.00 370.91&#10;  A 1.03 1.03 0.0 0 1 326.26 371.41&#10;  Q 327.32 373.46 327.50 376.00&#10;  C 327.86 380.98 328.15 387.67 326.84 392.27&#10;  C 323.04 405.68 313.54 412.34 300.53 415.84&#10;  Q 296.00 417.05 291.17 416.88&#10;  A 0.72 0.72 0.0 0 1 290.47 416.13&#10;  Z"/>
<path fill="#ffff00" d="&#10;  M 148.25 420.68&#10;  Q 149.81 419.65 151.49 419.17&#10;  Q 165.62 415.17 181.02 413.74&#10;  Q 192.37 412.70 204.92 414.74&#10;  Q 218.71 416.98 229.74 425.89&#10;  A 1.33 1.33 0.0 0 1 229.50 428.11&#10;  Q 220.16 432.76 210.11 433.62&#10;  Q 208.53 433.76 195.87 433.77&#10;  Q 188.65 433.78 181.72 432.37&#10;  Q 164.36 428.84 148.28 421.20&#10;  A 0.30 0.30 0.0 0 1 148.25 420.68&#10;  Z"/>
<path fill="#ffff00" d="&#10;  M 379.71 420.71&#10;  A 0.30 0.30 0.0 0 1 379.68 421.23&#10;  Q 363.63 428.84 346.30 432.35&#10;  Q 339.38 433.75 332.17 433.73&#10;  Q 319.54 433.71 317.96 433.57&#10;  Q 307.93 432.70 298.61 428.06&#10;  A 1.33 1.32 -51.2 0 1 298.38 425.84&#10;  Q 309.39 416.96 323.16 414.73&#10;  Q 335.69 412.71 347.01 413.76&#10;  Q 362.38 415.20 376.48 419.20&#10;  Q 378.16 419.68 379.71 420.71&#10;  Z"/>
</svg>